<mxfile host="app.diagrams.net" modified="2023-04-17T15:04:32.145Z" agent="Mozilla/5.0 (Windows NT 10.0; Win64; x64; rv:109.0) Gecko/20100101 Firefox/111.0" etag="BvTRFWjGoXcN1YTweTBn" version="21.1.8" type="github">
  <diagram name="Seite-1" id="Zoqge6XlFdQip4lwWcDh">
    <mxGraphModel dx="2136" dy="1134" grid="1" gridSize="10" guides="1" tooltips="1" connect="1" arrows="1" fold="1" page="1" pageScale="1" pageWidth="827" pageHeight="1169" math="0" shadow="0">
      <root>
        <mxCell id="0" />
        <mxCell id="1" parent="0" />
        <mxCell id="EVxpjHqIbt6YGZu_u5mY-1" value="" style="verticalLabelPosition=bottom;verticalAlign=top;html=1;shape=mxgraph.basic.frame;dx=10;whiteSpace=wrap;strokeColor=#330000;fillColor=#FFFFFF;sketch=1;curveFitting=1;jiggle=2;perimeterSpacing=0;strokeWidth=2;" parent="1" vertex="1">
          <mxGeometry x="120" y="320" width="520" height="400" as="geometry" />
        </mxCell>
        <mxCell id="EVxpjHqIbt6YGZu_u5mY-7" value="" style="ellipse;whiteSpace=wrap;html=1;aspect=fixed;strokeColor=#330000;fillColor=#CCCCCC;sketch=1;curveFitting=1;jiggle=2;perimeterSpacing=0;strokeWidth=2;" parent="1" vertex="1">
          <mxGeometry x="540" y="680" width="30" height="30" as="geometry" />
        </mxCell>
        <mxCell id="EVxpjHqIbt6YGZu_u5mY-5" value="" style="ellipse;whiteSpace=wrap;html=1;aspect=fixed;strokeColor=#330000;fillColor=#CCCCCC;sketch=1;curveFitting=1;jiggle=2;perimeterSpacing=0;strokeWidth=2;" parent="1" vertex="1">
          <mxGeometry x="480" y="680" width="30" height="30" as="geometry" />
        </mxCell>
        <mxCell id="1IbZuwVVC2MeNvRasE1F-7" value="" style="fontColor=#0066CC;verticalAlign=top;verticalLabelPosition=bottom;labelPosition=center;align=center;html=1;outlineConnect=0;fillColor=#CCCCCC;strokeColor=#330000;gradientColor=none;gradientDirection=north;strokeWidth=1;shape=mxgraph.networks.wireless_modem;sketch=1;curveFitting=1;jiggle=2;perimeterSpacing=0;" vertex="1" parent="1">
          <mxGeometry x="470" y="585" width="100" height="85" as="geometry" />
        </mxCell>
        <mxCell id="EVxpjHqIbt6YGZu_u5mY-3" value="" style="rounded=1;whiteSpace=wrap;html=1;gradientColor=none;fillColor=#CCCCCC;shadow=0;glass=0;fillStyle=solid;strokeColor=#330000;sketch=1;curveFitting=1;jiggle=2;perimeterSpacing=0;strokeWidth=2;" parent="1" vertex="1">
          <mxGeometry x="460" y="630" width="120" height="60" as="geometry" />
        </mxCell>
        <mxCell id="EVxpjHqIbt6YGZu_u5mY-4" value="" style="ellipse;whiteSpace=wrap;html=1;aspect=fixed;strokeColor=#330000;fillColor=#330000;sketch=1;curveFitting=1;jiggle=2;perimeterSpacing=0;strokeWidth=2;" parent="1" vertex="1">
          <mxGeometry x="470" y="680" width="30" height="30" as="geometry" />
        </mxCell>
        <mxCell id="EVxpjHqIbt6YGZu_u5mY-6" value="" style="ellipse;whiteSpace=wrap;html=1;aspect=fixed;strokeColor=#330000;fillColor=#330000;sketch=1;curveFitting=1;jiggle=2;perimeterSpacing=0;strokeWidth=2;" parent="1" vertex="1">
          <mxGeometry x="530" y="680" width="30" height="30" as="geometry" />
        </mxCell>
        <mxCell id="EVxpjHqIbt6YGZu_u5mY-9" value="" style="ellipse;whiteSpace=wrap;html=1;aspect=fixed;strokeColor=#330000;fillColor=#CCCCCC;sketch=1;curveFitting=1;jiggle=2;perimeterSpacing=0;strokeWidth=2;" parent="1" vertex="1">
          <mxGeometry x="308" y="680" width="30" height="30" as="geometry" />
        </mxCell>
        <mxCell id="EVxpjHqIbt6YGZu_u5mY-10" value="" style="ellipse;whiteSpace=wrap;html=1;aspect=fixed;strokeColor=#330000;fillColor=#CCCCCC;sketch=1;curveFitting=1;jiggle=2;perimeterSpacing=0;strokeWidth=2;" parent="1" vertex="1">
          <mxGeometry x="246" y="680" width="30" height="30" as="geometry" />
        </mxCell>
        <mxCell id="1IbZuwVVC2MeNvRasE1F-6" value="" style="fontColor=#0066CC;verticalAlign=top;verticalLabelPosition=bottom;labelPosition=center;align=center;html=1;outlineConnect=0;fillColor=#CCCCCC;strokeColor=#330000;gradientColor=none;gradientDirection=north;strokeWidth=1;shape=mxgraph.networks.wireless_modem;sketch=1;curveFitting=1;jiggle=2;perimeterSpacing=0;" vertex="1" parent="1">
          <mxGeometry x="246" y="585" width="100" height="85" as="geometry" />
        </mxCell>
        <mxCell id="EVxpjHqIbt6YGZu_u5mY-11" value="" style="rounded=1;whiteSpace=wrap;html=1;gradientColor=none;fillColor=#CCCCCC;shadow=0;glass=0;fillStyle=solid;strokeColor=#330000;sketch=1;curveFitting=1;jiggle=2;perimeterSpacing=0;strokeWidth=2;" parent="1" vertex="1">
          <mxGeometry x="230" y="630" width="120" height="60" as="geometry" />
        </mxCell>
        <mxCell id="EVxpjHqIbt6YGZu_u5mY-12" value="" style="ellipse;whiteSpace=wrap;html=1;aspect=fixed;strokeColor=#330000;fillColor=#330000;sketch=1;curveFitting=1;jiggle=2;perimeterSpacing=0;strokeWidth=2;" parent="1" vertex="1">
          <mxGeometry x="240" y="680" width="30" height="30" as="geometry" />
        </mxCell>
        <mxCell id="EVxpjHqIbt6YGZu_u5mY-13" value="" style="ellipse;whiteSpace=wrap;html=1;aspect=fixed;strokeColor=#330000;fillColor=#330000;sketch=1;curveFitting=1;jiggle=2;perimeterSpacing=0;strokeWidth=2;" parent="1" vertex="1">
          <mxGeometry x="300" y="680" width="30" height="30" as="geometry" />
        </mxCell>
        <mxCell id="EVxpjHqIbt6YGZu_u5mY-14" value="" style="fontColor=#0066CC;verticalAlign=top;verticalLabelPosition=bottom;labelPosition=center;align=center;html=1;outlineConnect=0;fillColor=#CCCCCC;strokeColor=#330000;gradientColor=none;gradientDirection=north;strokeWidth=2;shape=mxgraph.networks.security_camera;flipV=0;flipH=1;sketch=1;curveFitting=1;jiggle=2;perimeterSpacing=0;" parent="1" vertex="1">
          <mxGeometry x="580" y="366" width="50" height="35" as="geometry" />
        </mxCell>
        <mxCell id="EVxpjHqIbt6YGZu_u5mY-17" value="" style="shape=or;whiteSpace=wrap;html=1;strokeColor=#330000;fillColor=#CCCCCC;sketch=1;curveFitting=1;jiggle=2;perimeterSpacing=0;strokeWidth=2;" parent="1" vertex="1">
          <mxGeometry x="128" y="590" width="14" height="30" as="geometry" />
        </mxCell>
        <mxCell id="EVxpjHqIbt6YGZu_u5mY-21" value="" style="fontColor=#0066CC;verticalAlign=top;verticalLabelPosition=bottom;labelPosition=center;align=center;html=1;outlineConnect=0;fillColor=#CCCCCC;strokeColor=#330000;gradientColor=none;gradientDirection=north;strokeWidth=2;shape=mxgraph.networks.security_camera;sketch=1;curveFitting=1;jiggle=2;perimeterSpacing=0;" parent="1" vertex="1">
          <mxGeometry x="129" y="366" width="50" height="35" as="geometry" />
        </mxCell>
        <mxCell id="EVxpjHqIbt6YGZu_u5mY-22" value="" style="shape=or;whiteSpace=wrap;html=1;flipH=1;strokeColor=#330000;fillColor=#CCCCCC;sketch=1;curveFitting=1;jiggle=2;perimeterSpacing=0;strokeWidth=2;" parent="1" vertex="1">
          <mxGeometry x="616" y="591" width="14" height="30" as="geometry" />
        </mxCell>
        <mxCell id="1IbZuwVVC2MeNvRasE1F-1" value="" style="fontColor=#0066CC;verticalAlign=top;verticalLabelPosition=bottom;labelPosition=center;align=center;html=1;outlineConnect=0;fillColor=#CCCCCC;strokeColor=#330000;gradientColor=none;gradientDirection=north;strokeWidth=2;shape=mxgraph.networks.server;sketch=1;curveFitting=1;jiggle=2;perimeterSpacing=0;" vertex="1" parent="1">
          <mxGeometry x="690" y="610" width="90" height="100" as="geometry" />
        </mxCell>
        <mxCell id="1IbZuwVVC2MeNvRasE1F-8" value="" style="outlineConnect=0;dashed=0;verticalLabelPosition=bottom;verticalAlign=top;align=center;html=1;shape=mxgraph.aws3.instances_2;fillColor=#330000;gradientColor=none;sketch=1;curveFitting=1;jiggle=2;strokeWidth=1;fillStyle=zigzag;" vertex="1" parent="1">
          <mxGeometry x="350" y="354" width="60" height="47" as="geometry" />
        </mxCell>
      </root>
    </mxGraphModel>
  </diagram>
</mxfile>
